<?xml version="1.0" standalone="no"?><!DOCTYPE svg PUBLIC "-//W3C//DTD SVG 1.1//EN" "http://www.w3.org/Graphics/SVG/1.1/DTD/svg11.dtd"><svg t="1770205173459" class="icon" viewBox="0 0 1024 1024" version="1.1" xmlns="http://www.w3.org/2000/svg" p-id="4727" xmlns:xlink="http://www.w3.org/1999/xlink" width="200" height="200"><path d="M716.501333 225.834667A42.709333 42.709333 0 1 1 776.96 286.293333L551.253333 512l225.706667 225.706667a42.709333 42.709333 0 1 1-60.416 60.458666l-254.165333-254.165333A42.581333 42.581333 0 0 1 448 512a42.581333 42.581333 0 0 1 14.336-32l254.165333-254.165333z" p-id="4728"></path><path d="M460.501333 225.834667A42.709333 42.709333 0 1 1 520.96 286.293333L295.253333 512l225.706667 225.706667a42.709333 42.709333 0 1 1-60.416 60.458666L206.336 544A42.581333 42.581333 0 0 1 192 512a42.581333 42.581333 0 0 1 14.336-32l254.165333-254.165333z" p-id="4729"></path></svg>