<?xml version="1.0" standalone="no"?><!DOCTYPE svg PUBLIC "-//W3C//DTD SVG 1.1//EN" "http://www.w3.org/Graphics/SVG/1.1/DTD/svg11.dtd"><svg t="1770025231310" class="icon" viewBox="0 0 1024 1024" version="1.1" xmlns="http://www.w3.org/2000/svg" p-id="5976" xmlns:xlink="http://www.w3.org/1999/xlink" width="200" height="200"><path d="M924.928 222.805333l-82.346667-82.304a42.666667 42.666667 0 1 0-60.288 60.330667l12.458667 12.501333h-83.626667q-64.597333 0-118.357333 35.84t-78.592 95.445334l-125.824 301.952q-14.890667 35.754667-47.146667 57.258666Q308.949333 725.333333 270.208 725.333333H128a42.666667 42.666667 0 1 0 0 85.333334h142.208q64.597333 0 118.357333-35.84t78.549334-95.445334l125.866666-301.952q14.890667-35.754667 47.104-57.258666Q672.341333 298.666667 711.082667 298.666667h83.669333l-12.458667 12.501333a42.666667 42.666667 0 1 0 60.330667 60.330667l82.346667-82.346667Q938.666667 275.498667 938.666667 256t-13.738667-33.194667zM128 213.333333h90.325333q68.864 0 124.714667 40.277334 55.893333 40.277333 77.653333 105.6l3.754667 11.306666a42.666667 42.666667 0 1 1-80.938667 26.965334l-3.754666-11.306667q-13.056-39.168-46.592-63.36Q259.626667 298.666667 218.325333 298.666667H128a42.666667 42.666667 0 0 1 0-85.333334z m666.752 597.333334h-31.744q-68.864 0-124.757333-40.277334-55.893333-40.277333-77.653334-105.6l-3.754666-11.306666a42.666667 42.666667 0 1 1 80.938666-26.965334l3.797334 11.306667q13.056 39.168 46.592 63.36 33.493333 24.149333 74.837333 24.149333h31.744l-12.458667-12.501333a42.666667 42.666667 0 1 1 60.330667-60.330667l82.346667 82.346667Q938.666667 748.501333 938.666667 768t-13.738667 33.194667l-82.304 82.304a42.666667 42.666667 0 1 1-60.330667-60.330667l12.458667-12.501333z" p-id="5977"></path></svg>