<?xml version="1.0" standalone="no"?><!DOCTYPE svg PUBLIC "-//W3C//DTD SVG 1.1//EN" "http://www.w3.org/Graphics/SVG/1.1/DTD/svg11.dtd"><svg t="1770025349796" class="icon" viewBox="0 0 1024 1024" version="1.1" xmlns="http://www.w3.org/2000/svg" p-id="6880" xmlns:xlink="http://www.w3.org/1999/xlink" width="200" height="200"><path d="M469.333333 384a42.666667 42.666667 0 0 0-85.333333 0h85.333333z m-85.333333 256a42.666667 42.666667 0 1 0 85.333333 0H384z m256-256a42.666667 42.666667 0 1 0-85.333333 0h85.333333z m-85.333333 256a42.666667 42.666667 0 1 0 85.333333 0h-85.333333z m298.666666-128a341.333333 341.333333 0 0 1-341.333333 341.333333v85.333334c235.648 0 426.666667-191.018667 426.666667-426.666667h-85.333334z m-341.333333 341.333333a341.333333 341.333333 0 0 1-341.333333-341.333333H85.333333c0 235.648 191.018667 426.666667 426.666667 426.666667v-85.333334z m-341.333333-341.333333a341.333333 341.333333 0 0 1 341.333333-341.333333V85.333333C276.352 85.333333 85.333333 276.352 85.333333 512h85.333334z m341.333333-341.333333a341.333333 341.333333 0 0 1 341.333333 341.333333h85.333334c0-235.648-191.018667-426.666667-426.666667-426.666667v85.333334zM384 384v256h85.333333V384H384z m170.666667 0v256h85.333333V384h-85.333333z" p-id="6881"></path></svg>