<?xml version="1.0" standalone="no"?><!DOCTYPE svg PUBLIC "-//W3C//DTD SVG 1.1//EN" "http://www.w3.org/Graphics/SVG/1.1/DTD/svg11.dtd"><svg t="1770025352285" class="icon" viewBox="0 0 1024 1024" version="1.1" xmlns="http://www.w3.org/2000/svg" p-id="7036" xmlns:xlink="http://www.w3.org/1999/xlink" width="200" height="200"><path d="M493.013333 385.536l23.637334-35.498667-23.637334 35.498667z m136.405334 90.965333l23.68-35.498666-23.68 35.498666z m0 70.997334L605.738667 512l23.68 35.498667z m-136.405334 90.922666L469.333333 603.008l23.68 35.498667zM469.333333 421.12L605.738667 512l47.36-70.997333-136.448-90.965334L469.333333 421.12zM605.738667 512L469.333333 602.965333l47.36 70.997334 136.405334-90.965334L605.738667 512zM469.333333 602.965333V421.077333H384v181.888h85.333333z m0 0H384c0 68.138667 75.946667 108.8 132.693333 70.997334L469.333333 602.965333zM605.738667 512l47.36 70.997333a85.333333 85.333333 0 0 0 0-141.994666L605.738667 512zM516.693333 350.037333C459.946667 312.234667 384 352.896 384 421.12h85.333333l47.36-71.04zM853.333333 512a341.333333 341.333333 0 0 1-341.333333 341.333333v85.333334c235.648 0 426.666667-191.018667 426.666667-426.666667h-85.333334z m-341.333333 341.333333a341.333333 341.333333 0 0 1-341.333333-341.333333H85.333333c0 235.648 191.018667 426.666667 426.666667 426.666667v-85.333334z m-341.333333-341.333333a341.333333 341.333333 0 0 1 341.333333-341.333333V85.333333C276.352 85.333333 85.333333 276.352 85.333333 512h85.333334z m341.333333-341.333333a341.333333 341.333333 0 0 1 341.333333 341.333333h85.333334c0-235.648-191.018667-426.666667-426.666667-426.666667v85.333334z" p-id="7037"></path></svg>