<?xml version="1.0" standalone="no"?><!DOCTYPE svg PUBLIC "-//W3C//DTD SVG 1.1//EN" "http://www.w3.org/Graphics/SVG/1.1/DTD/svg11.dtd"><svg t="1770205164734" class="icon" viewBox="0 0 1024 1024" version="1.1" xmlns="http://www.w3.org/2000/svg" p-id="4572" xmlns:xlink="http://www.w3.org/1999/xlink" width="200" height="200"><path d="M286.293333 225.834667A42.709333 42.709333 0 1 0 225.792 286.293333L451.541333 512l-225.706666 225.706667a42.709333 42.709333 0 1 0 60.416 60.458666l254.165333-254.165333a42.581333 42.581333 0 0 0 14.336-32 42.581333 42.581333 0 0 0-14.336-32L286.293333 225.834667z" p-id="4573"></path><path d="M542.293333 225.834667a42.709333 42.709333 0 1 0-60.458666 60.416L707.541333 512l-225.706666 225.706667a42.709333 42.709333 0 1 0 60.416 60.458666l254.165333-254.165333a42.581333 42.581333 0 0 0 14.336-32 42.581333 42.581333 0 0 0-14.336-32L542.293333 225.834667z" p-id="4574"></path></svg>