<?xml version="1.0" standalone="no"?><!DOCTYPE svg PUBLIC "-//W3C//DTD SVG 1.1//EN" "http://www.w3.org/Graphics/SVG/1.1/DTD/svg11.dtd"><svg t="1770025325761" class="icon" viewBox="0 0 1024 1024" version="1.1" xmlns="http://www.w3.org/2000/svg" p-id="6430" xmlns:xlink="http://www.w3.org/1999/xlink" width="200" height="200"><path d="M298.538667 298.666667l-85.12 0.298666q-35.370667 0-60.373334 25.002667-25.002667 24.96-25.002666 60.330667v256.810666q0.512 35.328 25.514666 60.330667t60.330667 25.002667l85.162667-0.256 199.466666 158.976q31.957333 20.906667 65.493334 2.730666 33.578667-18.133333 33.578666-56.277333V192.896q-0.512-38.144-34.048-56.277333-33.578667-18.133333-65.536 2.730666L298.538667 298.709333zM213.418667 384.341333L323.968 384l187.733333-151.68 0.512 559.786667-187.733333-151.296-110.592 0.256-0.469333-256.853334z m527.957333-57.770666a42.666667 42.666667 0 1 1 64.512-55.893334q44.373333 51.157333 67.541333 114.346667 22.528 61.354667 22.528 126.933333 0 65.536-22.528 126.933334-23.210667 63.189333-67.584 114.346666a42.666667 42.666667 0 0 1-64.426666-55.893333q34.048-39.338667 51.882666-87.850667 17.28-47.146667 17.28-97.536t-17.28-97.536q-17.834667-48.554667-51.925333-87.850666z m-92.117333 81.706666a42.666667 42.666667 0 1 1 70.144-48.64q23.253333 33.578667 35.413333 72.490667 11.946667 38.058667 12.202667 78.037333 0.256 39.936-11.093334 78.165334-11.690667 39.082667-34.56 72.96l-1.664 2.517333a42.666667 42.666667 0 0 1-70.784-47.701333l1.706667-2.517334q31.402667-46.634667 31.061333-102.826666-0.426667-56.277333-32.426666-102.485334z" p-id="6431"></path></svg>