<?xml version="1.0" standalone="no"?><!DOCTYPE svg PUBLIC "-//W3C//DTD SVG 1.1//EN" "http://www.w3.org/Graphics/SVG/1.1/DTD/svg11.dtd"><svg t="1770025331110" class="icon" viewBox="0 0 1024 1024" version="1.1" xmlns="http://www.w3.org/2000/svg" p-id="6730" xmlns:xlink="http://www.w3.org/1999/xlink" width="200" height="200"><path d="M170.666667 298.666667l85.162666-0.213334L455.253333 139.093333q31.914667-20.906667 65.493334-2.730666 33.578667 18.133333 34.048 56.32v638.677333q0 38.144-33.536 56.32-33.578667 18.133333-65.493334-2.773333l-199.466666-158.976-85.162667 0.256q-35.370667 0-60.330667-25.002667-25.002667-25.002667-25.514666-60.330667V384q0-35.328 25.002666-60.330667Q135.338667 298.709333 170.666667 298.666667z m110.592 85.12L170.666667 384l0.512 256.853333 110.592-0.256 187.733333 151.338667-0.512-559.829333-187.733333 151.68z m403.541333-42.709334a42.666667 42.666667 0 1 0-60.330667 60.330667l90.496 90.496-90.453333 90.538667a42.666667 42.666667 0 0 0 60.288 60.330666l90.538667-90.538666 90.496 90.538666a42.666667 42.666667 0 0 0 60.330666-60.330666l-90.496-90.538667 90.496-90.496a42.666667 42.666667 0 0 0-60.330666-60.330667l-90.496 90.496-90.538667-90.496z" p-id="6731"></path></svg>