<?xml version="1.0" standalone="no"?><!DOCTYPE svg PUBLIC "-//W3C//DTD SVG 1.1//EN" "http://www.w3.org/Graphics/SVG/1.1/DTD/svg11.dtd"><svg t="1770025328088" class="icon" viewBox="0 0 1024 1024" version="1.1" xmlns="http://www.w3.org/2000/svg" p-id="6580" xmlns:xlink="http://www.w3.org/1999/xlink" width="200" height="200"><path d="M255.829333 298.666667L170.666667 299.008q-35.328 0-60.330667 25.002667Q85.333333 348.928 85.333333 384.298667v256.810666q0.512 35.328 25.514667 60.330667t60.330667 25.002667l85.162666-0.256 199.466667 158.976q31.957333 20.906667 65.493333 2.730666 33.578667-18.133333 33.578667-56.277333V192.896q-0.512-38.144-34.090667-56.277333-33.578667-18.133333-65.493333 2.730666L255.829333 298.709333z m655.658667 43.946666q-27.733333-83.968-81.066667-154.965333a42.666667 42.666667 0 1 0-68.266666 51.2q44.928 59.818667 68.266666 130.56 22.784 68.992 22.912 141.866667 0.085333 72.874667-22.528 141.994666-23.125333 70.784-67.882666 130.688l-0.853334 1.066667a42.666667 42.666667 0 1 0 68.394667 51.072l0.853333-1.066667q53.12-71.168 80.64-155.264 26.837333-82.090667 26.709334-168.618666-0.128-86.485333-27.178667-168.533334zM170.666667 384.298667L281.258667 384l187.733333-151.68 0.512 559.786667-187.733333-151.296-110.592 0.256L170.666667 384.256z m490.666666-85.76a42.666667 42.666667 0 0 0 10.453334 27.989333q34.090667 39.296 51.882666 87.850667 17.322667 47.146667 17.322667 97.536t-17.322667 97.536q-17.792 48.512-51.882666 87.850666a42.666667 42.666667 0 1 0 64.426666 55.893334q44.373333-51.157333 67.584-114.346667 22.528-61.397333 22.528-126.933333 0-65.578667-22.528-126.933334-23.168-63.189333-67.498666-114.346666a42.666667 42.666667 0 0 0-74.965334 27.946666z m-66.218666 109.696a42.666667 42.666667 0 1 1 70.144-48.64q23.296 33.578667 35.413333 72.490666 11.946667 38.058667 12.202667 78.037334 0.298667 39.936-11.093334 78.165333-11.690667 39.082667-34.56 72.96l-1.664 2.517333a42.666667 42.666667 0 0 1-70.784-47.701333l1.706667-2.517333q31.445333-46.634667 31.061333-102.826667-0.384-56.277333-32.426666-102.485333z" p-id="6581"></path></svg>