<?xml version="1.0" standalone="no"?><!DOCTYPE svg PUBLIC "-//W3C//DTD SVG 1.1//EN" "http://www.w3.org/Graphics/SVG/1.1/DTD/svg11.dtd"><svg t="1770025322633" class="icon" viewBox="0 0 1024 1024" version="1.1" xmlns="http://www.w3.org/2000/svg" p-id="6280" xmlns:xlink="http://www.w3.org/1999/xlink" width="200" height="200"><path d="M256 298.965333L341.162667 298.666667l199.466666-159.36q31.914667-20.906667 65.493334-2.730667 33.578667 18.133333 34.048 56.32v638.72q0 38.101333-33.536 56.234667-33.578667 18.176-65.536-2.730667L341.674667 726.186667l-85.162667 0.256q-35.370667 0-60.330667-25.002667-25.002667-25.002667-25.514666-60.330667v-256.853333q0-35.328 25.002666-60.288 25.002667-25.002667 60.330667-25.002667zM366.592 384L256 384.298667l0.512 256.810666 110.549333-0.256 187.733334 151.338667-0.426667-559.786667L366.549333 384z m361.386667-0.128a42.666667 42.666667 0 0 0 7.594666 24.32q32.042667 46.208 32.426667 102.442667 0.341333 56.234667-31.061333 102.869333l-1.706667 2.56a42.666667 42.666667 0 1 0 70.826667 47.658667l1.664-2.517334q22.826667-33.877333 34.474666-72.96 11.392-38.229333 11.136-78.165333-0.256-39.978667-12.16-78.037333-12.202667-38.912-35.456-72.490667a42.666667 42.666667 0 0 0-77.781333 24.32z" p-id="6281"></path></svg>